<svg width="40" height="40" viewBox="0 0 40 40" fill="none" xmlns="http://www.w3.org/2000/svg">
  <rect width="40" height="40" rx="20" fill="#4F46E5" fill-opacity="0.1"/>
  <path d="M20 10C14.4772 10 10 14.4772 10 20C10 25.5228 14.4772 30 20 30C25.5228 30 30 25.5228 30 20C30 14.4772 25.5228 10 20 10ZM24 21H21V24C21 24.5523 20.5523 25 20 25C19.4477 25 19 24.5523 19 24V21H16C15.4477 21 15 20.5523 15 20C15 19.4477 15.4477 19 16 19H19V16C19 15.4477 19.4477 15 20 15C20.5523 15 21 15.4477 21 16V19H24C24.5523 19 25 19.4477 25 20C25 20.5523 24.5523 21 24 21Z" fill="#4F46E5"/>
</svg>

