<svg width="40" height="40" viewBox="0 0 40 40" fill="none" xmlns="http://www.w3.org/2000/svg">
  <rect width="40" height="40" rx="20" fill="#4F46E5" fill-opacity="0.1"/>
  <path d="M30 28H10V12C10 11.4477 9.55228 11 9 11H8C7.44772 11 7 11.4477 7 12V30C7 30.5523 7.44772 31 8 31H30C30.5523 31 31 30.5523 31 30V29C31 28.4477 30.5523 28 30 28Z" fill="#4F46E5"/>
  <path d="M14 22H12C11.4477 22 11 22.4477 11 23V26C11 26.5523 11.4477 27 12 27H14C14.5523 27 15 26.5523 15 26V23C15 22.4477 14.5523 22 14 22Z" fill="#4F46E5"/>
  <path d="M20 18H18C17.4477 18 17 18.4477 17 19V26C17 26.5523 17.4477 27 18 27H20C20.5523 27 21 26.5523 21 26V19C21 18.4477 20.5523 18 20 18Z" fill="#4F46E5"/>
  <path d="M26 14H24C23.4477 14 23 14.4477 23 15V26C23 26.5523 23.4477 27 24 27H26C26.5523 27 27 26.5523 27 26V15C27 14.4477 26.5523 14 26 14Z" fill="#4F46E5"/>
</svg>

