<svg width="40" height="40" viewBox="0 0 40 40" fill="none" xmlns="http://www.w3.org/2000/svg">
  <rect width="40" height="40" rx="20" fill="#4F46E5" fill-opacity="0.1"/>
  <path d="M30 20H25V13C25 12.4477 24.5523 12 24 12H22C21.4477 12 21 12.4477 21 13V20H19V13C19 12.4477 18.5523 12 18 12H16C15.4477 12 15 12.4477 15 13V20H10C9.44772 20 9 20.4477 9 21V23C9 23.5523 9.44772 24 10 24H15V31C15 31.5523 15.4477 32 16 32H18C18.5523 32 19 31.5523 19 31V24H21V31C21 31.5523 21.4477 32 22 32H24C24.5523 32 25 31.5523 25 31V24H30C30.5523 24 31 23.5523 31 23V21C31 20.4477 30.5523 20 30 20Z" fill="#4F46E5"/>
</svg>

